<svg width="134" height="60" fill="none" xmlns="http://www.w3.org/2000/svg"><path d="m23.052 19.058-6.719 19.667h3.96l1.89-5.732h5.442l1.941 5.732h4.036l-6.718-19.667h-3.832zm3.627 10.7h-3.525l1.482-4.331c.102-.306.204-.586.28-.892.103.306.18.612.282.917l1.481 4.306zM40.27 29.808c-1.814-.713-2.018-1.044-2.018-1.579 0-.662.562-1.07 1.456-1.07 1.073 0 1.89.433 2.299.663l.766.483 1.022-3.107-.46-.306c-.894-.586-2.222-.917-3.602-.917-3.014 0-5.211 1.91-5.211 4.534 0 2.42 2.146 3.72 3.96 4.382 1.813.662 1.941 1.146 1.941 1.707 0 1.07-1.124 1.223-1.814 1.223-1.047 0-2.171-.433-2.81-.816l-.766-.458-1.022 3.184.485.28c1.099.637 2.58 1.02 4.062 1.02 3.347 0 5.595-1.886 5.595-4.663 0-2.827-2.223-3.974-3.883-4.56zM50.105 20.816l-3.755 1.146v2.242h-2.044v3.235h2.044v6.42c0 1.783.357 3.082 1.098 3.923.715.79 1.84 1.223 3.091 1.223 1.15 0 1.967-.23 2.35-.357l.511-.178-.204-3.26-.869.254c-.255.076-.562.127-1.175.127-.46 0-1.073 0-1.073-1.834v-6.292h3.423V24.23H50.08l.026-3.414zM62.673 24.077l-.69-.077a5.033 5.033 0 0 0-.664-.05c-1.2 0-2.299.483-3.116 1.35l-.051-1.07H54.6l.051.764c.077 1.12.102 2.394.102 4.025v9.706h3.806V31.03c0-.356.026-.713.077-.968.281-1.503 1.226-2.445 2.504-2.445.306 0 .485 0 .664.025l.868.178v-3.744zM69.647 23.95c-4.24 0-7.23 3.133-7.23 7.642s2.888 7.439 7 7.439c3.5 0 7.255-2.395 7.255-7.668 0-4.357-2.886-7.388-7.025-7.414zm3.168 7.489c0 2.522-1.38 4.382-3.27 4.382-1.89 0-3.244-1.81-3.244-4.306 0-1.605.69-4.356 3.295-4.356 2.53 0 3.219 2.802 3.219 4.28zM89.19 20.663c-1.252-1.12-3.142-1.707-5.595-1.707-1.66 0-3.219.128-4.649.357l-.588.102v19.31h3.781v-7.159c.383.026.792.051 1.175.051 2.555 0 4.726-.79 6.106-2.216 1.073-1.096 1.61-2.573 1.61-4.382 0-1.758-.665-3.311-1.84-4.356zm-1.967 4.484c0 2.75-2.427 3.159-3.858 3.159a8.28 8.28 0 0 1-1.226-.077v-5.936c.358-.05.869-.076 1.507-.076 1.635 0 3.577.51 3.577 2.93zM102.627 34.904v-4.917c0-3.898-2.018-6.038-5.697-6.038-1.711 0-3.474.459-4.726 1.248l-.485.306 1.022 3.006.766-.535c.792-.535 1.916-.84 3.04-.84.766 0 1.328.178 1.686.535.306.305.485.738.536 1.324-2.963.077-5.16.79-6.488 2.115-.92.917-1.38 2.089-1.38 3.464 0 2.217 1.635 4.459 4.726 4.459 1.329 0 2.58-.434 3.551-1.172l.102.866h3.602l-.127-.815a30.908 30.908 0 0 1-.128-3.006zm-6.361.968c-.562 0-1.507-.204-1.507-1.554 0-.51.153-.943.485-1.249.434-.433 1.43-.942 3.653-.993v1.554c0 .102 0 .33-.077.535-.255.739-1.098 1.681-2.554 1.707zM113.126 24.204l-2.759 8.152c-.076.204-.128.408-.204.611a8.453 8.453 0 0 1-.205-.585l-3.014-8.203h-4.164l5.211 13.043.026.025c.077.178.102.255.128.306a1.394 1.394 0 0 1-.128.28c-.46.968-1.124 1.86-1.788 2.395l-.026.025c-.766.637-1.532.943-1.839 1.02l-.664.203.971 3.26.638-.101c.383-.076 1.737-.382 3.27-1.681 1.865-1.63 3.091-4.23 4.7-8.484l3.909-10.266h-4.062zM30.256 24.51c2.452-2.497 6.616-4 11.138-4 1.762 0 3.474.23 5.109.662l.128.026 2.886-.866-1.303-.484c-2.477-.943-5.313-1.427-8.25-1.427-4.241 0-8.226 1.019-11.164 2.879l-.307.203 1.226 3.567.537-.56z" fill="#fff"/></svg>