<svg width="51" height="25" viewBox="0 0 51 25" fill="none" xmlns="http://www.w3.org/2000/svg">
<path d="M19.2743 8.42396L10.4833 4.91968L1.69221 8.42396V10.4612H19.2743V8.42396Z" fill="white"/>
<path d="M6.21129 11.8059C6.47208 11.8059 6.68346 11.6145 6.68346 11.3781C6.68346 11.1416 6.47208 10.9502 6.21129 10.9502H3.42329C3.1625 10.9502 2.95118 11.1416 2.95118 11.3781C2.95118 11.6145 3.1625 11.8059 3.42329 11.8059H3.58066V17.918H3.42329C3.1625 17.918 2.95118 18.1095 2.95118 18.3459C2.95118 18.5823 3.1625 18.7739 3.42329 18.7739H6.21129C6.47208 18.7739 6.68346 18.5823 6.68346 18.3459C6.68346 18.1095 6.47208 17.918 6.21129 17.918H6.05392V11.8059H6.21129Z" fill="white"/>
<path d="M11.8772 11.8059C12.138 11.8059 12.3494 11.6145 12.3494 11.3781C12.3494 11.1416 12.138 10.9502 11.8772 10.9502H9.08924C8.82851 10.9502 8.61712 11.1416 8.61712 11.3781C8.61712 11.6145 8.82851 11.8059 9.08924 11.8059H9.24667V17.918H9.08924C8.82851 17.918 8.61712 18.1095 8.61712 18.3459C8.61712 18.5823 8.82851 18.7739 9.08924 18.7739H11.8772C12.138 18.7739 12.3494 18.5823 12.3494 18.3459C12.3494 18.1095 12.138 17.918 11.8772 17.918H11.7198V11.8059H11.8772Z" fill="white"/>
<path d="M17.6331 11.8059C17.8938 11.8059 18.1052 11.6145 18.1052 11.3781C18.1052 11.1416 17.8938 10.9502 17.6331 10.9502H14.8451C14.5843 10.9502 14.3729 11.1416 14.3729 11.3781C14.3729 11.6145 14.5843 11.8059 14.8451 11.8059H15.0024V17.918H14.8451C14.5843 17.918 14.3729 18.1095 14.3729 18.3459C14.3729 18.5823 14.5843 18.7739 14.8451 18.7739H17.6331C17.8938 18.7739 18.1052 18.5823 18.1052 18.3459C18.1052 18.1095 17.8938 17.918 17.6331 17.918H17.4757V11.8059H17.6331Z" fill="white"/>
<path d="M2.14175 20.3221H18.8247C19.0721 20.3221 19.2743 20.1387 19.2743 19.9148V19.6702C19.2743 19.446 19.0721 19.2627 18.8247 19.2627H2.14175C1.89449 19.2627 1.69221 19.446 1.69221 19.6702V19.9148C1.69221 20.1387 1.89449 20.3221 2.14175 20.3221Z" fill="white"/>
<path d="M19.9939 20.8111H0.972666C0.725291 20.8111 0.522949 20.9946 0.522949 21.2185V21.5852C0.522949 21.8095 0.725291 21.9929 0.972666 21.9929H19.9939C20.2412 21.9929 20.4435 21.8095 20.4435 21.5852V21.2185C20.4435 20.9946 20.2412 20.8111 19.9939 20.8111Z" fill="white"/>
<path d="M27.8631 11.0358C27.6968 10.8361 27.4584 10.6975 27.1526 10.616C27.3909 10.5101 27.5708 10.3718 27.6878 10.1963C27.8047 10.0211 27.8631 9.83362 27.8631 9.63801C27.8631 9.42626 27.8002 9.22654 27.6653 9.03088C27.5304 8.83544 27.346 8.69288 27.1122 8.59905C26.8783 8.50532 26.5636 8.46054 26.1769 8.46054H24.2702V13.0692H26.2083C26.5321 13.0692 26.8018 13.0446 27.0267 12.9916C27.2516 12.9386 27.4359 12.8654 27.5844 12.7636C27.7326 12.6656 27.8586 12.5231 27.9576 12.3357C28.061 12.1483 28.1104 11.9484 28.1104 11.7325C28.1104 11.4635 28.0296 11.2314 27.8631 11.0358ZM24.9402 9.00663H25.961C26.3252 9.00663 26.586 9.02705 26.7345 9.07167C26.8828 9.11645 26.9997 9.19397 27.0806 9.31217C27.1616 9.42626 27.2021 9.56066 27.2021 9.71553C27.2021 9.87851 27.1572 10.013 27.0717 10.119C26.9862 10.2249 26.8558 10.3025 26.685 10.3471C26.5546 10.3837 26.3386 10.4002 26.042 10.4002H24.9402V9.00663ZM27.3101 12.1236C27.2426 12.2377 27.1572 12.3234 27.0538 12.3805C26.9503 12.4417 26.8199 12.4824 26.667 12.5067C26.577 12.519 26.4242 12.5271 26.2083 12.5271H24.9402V10.9419H26.1183C26.4422 10.9419 26.6894 10.9665 26.8603 11.0194C27.0312 11.0724 27.1662 11.162 27.265 11.2884C27.3595 11.4146 27.4089 11.5655 27.4089 11.7366C27.4089 11.8834 27.3775 12.0096 27.3101 12.1236Z" fill="white"/>
<path d="M31.9731 12.6616C31.9462 12.5231 31.9326 12.1889 31.9326 11.6634V10.9095C31.9326 10.6569 31.9236 10.4857 31.9012 10.3879C31.8652 10.229 31.8023 10.1026 31.7078 10.0007C31.6179 9.8989 31.474 9.81328 31.2761 9.74807C31.0828 9.67887 30.8265 9.64608 30.5117 9.64608C30.1925 9.64608 29.9136 9.68692 29.6753 9.76444C29.4325 9.84596 29.2481 9.95605 29.1222 10.1026C28.9962 10.2494 28.9019 10.441 28.8479 10.677L29.4595 10.7547C29.5269 10.5142 29.6303 10.3513 29.7697 10.2575C29.9092 10.1638 30.1294 10.119 30.4218 10.119C30.7365 10.119 30.9748 10.1842 31.1322 10.3106C31.2492 10.4083 31.3076 10.5672 31.3076 10.7994C31.3076 10.8198 31.3076 10.8687 31.3032 10.9462C31.0648 11.0235 30.6916 11.089 30.1879 11.1416C29.9406 11.1703 29.7562 11.1988 29.6349 11.2273C29.4684 11.272 29.3201 11.3332 29.1851 11.4146C29.0502 11.4962 28.9423 11.6063 28.8614 11.7407C28.7805 11.8751 28.7399 12.0259 28.7399 12.1889C28.7399 12.4701 28.8523 12.6983 29.0682 12.8774C29.2885 13.0569 29.5988 13.1465 30.0036 13.1465C30.2464 13.1465 30.4758 13.1098 30.6916 13.0365C30.9074 12.9632 31.1322 12.8368 31.3616 12.6575C31.3795 12.8166 31.42 12.9549 31.4785 13.061H32.1305C32.054 12.9347 32 12.8001 31.9731 12.6616ZM31.3076 11.6022C31.3076 11.8507 31.2761 12.0421 31.2087 12.1687C31.1187 12.3357 30.9839 12.4659 30.795 12.5598C30.6062 12.6535 30.3903 12.7023 30.152 12.7023C29.9092 12.7023 29.7247 12.6535 29.5988 12.5517C29.4729 12.4497 29.41 12.3234 29.41 12.1726C29.41 12.0748 29.437 11.9852 29.4953 11.9038C29.5539 11.8222 29.6349 11.7611 29.7426 11.7202C29.8507 11.6756 30.0306 11.6387 30.2869 11.6063C30.7411 11.5493 31.0828 11.4801 31.3076 11.3942V11.6022Z" fill="white"/>
<path d="M35.2064 10.5224C35.2558 10.6365 35.2783 10.8074 35.2783 11.0397V13.0692H35.9034V11.0194C35.9034 10.7586 35.8899 10.5752 35.8674 10.4694C35.8314 10.3063 35.7684 10.1678 35.674 10.0496C35.5796 9.93145 35.4402 9.83789 35.2558 9.76442C35.0714 9.69111 34.8646 9.6546 34.6442 9.6546C34.1317 9.6546 33.7404 9.83789 33.4706 10.2046V9.73195H32.9085V13.0692H33.538V11.2476C33.538 10.8198 33.6324 10.5304 33.8258 10.3755C34.0192 10.2249 34.2484 10.1475 34.5138 10.1475C34.6802 10.1475 34.8241 10.1801 34.9501 10.2494C35.0714 10.3187 35.1568 10.4083 35.2064 10.5224Z" fill="white"/>
<path d="M39.9144 13.0692L38.3676 10.9706L39.775 9.73196H38.9656L37.4863 11.0889V8.46054H36.8612V13.0692H37.4863V11.7449L37.9268 11.3619L39.1456 13.0692H39.9144Z" fill="white"/>
<path d="M23.915 16.3451H25.5922V20.4117H26.2623V16.3451H27.9441V15.8032H23.915V16.3451Z" fill="white"/>
<path d="M29.2437 17.1112C29.1223 17.1887 28.9919 17.3434 28.8479 17.5799V17.0747H28.2858V20.4118H28.9064V18.6637C28.9064 18.4232 28.9424 18.2033 29.0098 18.0036C29.0593 17.8731 29.1357 17.7672 29.2437 17.6941C29.3516 17.6205 29.4775 17.5838 29.6124 17.5838C29.7653 17.5838 29.9182 17.6246 30.0711 17.706L30.287 17.1804C30.0666 17.0581 29.8552 16.9973 29.6439 16.9973C29.5 16.9973 29.3651 17.0338 29.2437 17.1112Z" fill="white"/>
<path d="M33.6728 20.0043C33.6458 19.8658 33.6323 19.5318 33.6323 19.006V18.2521C33.6323 17.9995 33.6233 17.8283 33.6009 17.7306C33.5649 17.5717 33.5019 17.4453 33.4076 17.3434C33.3176 17.2416 33.1737 17.1562 32.9758 17.0908C32.7825 17.0215 32.5262 16.989 32.2114 16.989C31.8921 16.989 31.6133 17.0296 31.375 17.1071C31.1322 17.1887 30.9478 17.2987 30.8218 17.4453C30.696 17.5921 30.6015 17.7837 30.5476 18.02L31.1592 18.0975C31.2266 17.8569 31.33 17.6941 31.4694 17.6002C31.6088 17.5065 31.8291 17.4617 32.1214 17.4617C32.4362 17.4617 32.6745 17.5269 32.8319 17.6533C32.9489 17.751 33.0073 17.9099 33.0073 18.1421C33.0073 18.1625 33.0073 18.2114 33.0028 18.2889C32.7645 18.3662 32.3913 18.4314 31.8876 18.4844C31.6403 18.5129 31.4559 18.5415 31.3346 18.5699C31.1681 18.6147 31.0198 18.676 30.8848 18.7573C30.75 18.8389 30.6421 18.9489 30.5611 19.0834C30.4802 19.218 30.4396 19.3686 30.4396 19.5318C30.4396 19.8128 30.5521 20.041 30.768 20.2201C30.9883 20.3997 31.2986 20.4892 31.7033 20.4892C31.9461 20.4892 32.1754 20.4525 32.3913 20.3792C32.6071 20.3059 32.8319 20.1795 33.0613 20.0002C33.0838 20.1551 33.1242 20.2936 33.1783 20.4037H33.8303C33.7538 20.2774 33.6997 20.1428 33.6728 20.0043ZM33.0118 18.9408C33.0118 19.1892 32.9804 19.3808 32.9129 19.5071C32.8229 19.6742 32.688 19.8048 32.4992 19.8982C32.3103 19.9922 32.0944 20.041 31.8561 20.041C31.6133 20.041 31.429 19.9922 31.3031 19.8902C31.1771 19.7883 31.1142 19.6621 31.1142 19.5114C31.1142 19.4135 31.1411 19.3238 31.1996 19.2423C31.2581 19.1608 31.339 19.0998 31.447 19.0589C31.5548 19.0141 31.7347 18.9774 31.991 18.9449C32.4451 18.8878 32.7869 18.8185 33.0118 18.7331V18.9408Z" fill="white"/>
<path d="M37.3781 17.3923C37.2837 17.2741 37.1443 17.1804 36.96 17.1071C36.7756 17.0338 36.5687 16.9973 36.3484 16.9973C35.8357 16.9973 35.4446 17.1804 35.1748 17.5473V17.0747H34.6127V20.4158H35.2422V18.5944C35.2422 18.1667 35.3366 17.8772 35.53 17.7225C35.7233 17.5717 35.9527 17.4942 36.218 17.4942C36.3843 17.4942 36.5282 17.5269 36.6541 17.5961C36.7756 17.6654 36.861 17.7551 36.9104 17.8691C36.96 17.9832 36.9824 18.1544 36.9824 18.3867V20.4158H37.6075V18.3621C37.6075 18.1013 37.5939 17.918 37.5715 17.8121C37.5355 17.6491 37.4726 17.5106 37.3781 17.3923Z" fill="white"/>
<path d="M40.8092 18.6475C40.6338 18.5823 40.3236 18.4924 39.8828 18.3866C39.5771 18.3133 39.3928 18.2645 39.3298 18.2441C39.2218 18.2032 39.1409 18.1544 39.0915 18.0933C39.0421 18.0321 39.015 17.9669 39.015 17.8936C39.015 17.7795 39.0779 17.6775 39.1993 17.5921C39.3253 17.5065 39.5277 17.4617 39.8154 17.4617C40.0582 17.4617 40.2427 17.5065 40.3776 17.6043C40.5124 17.7022 40.5934 17.8364 40.6203 18.0077L41.2318 17.9303C41.1914 17.7145 41.1195 17.5431 41.0161 17.4127C40.9081 17.2864 40.7508 17.1846 40.5304 17.1071C40.3146 17.0296 40.0582 16.993 39.7705 16.993C39.5771 16.993 39.3972 17.0176 39.2308 17.0623C39.0645 17.1112 38.934 17.1643 38.8351 17.2295C38.7048 17.3149 38.6058 17.421 38.5294 17.5473C38.4528 17.6736 38.417 17.808 38.417 17.9588C38.417 18.1217 38.4619 18.2726 38.5519 18.407C38.6418 18.5415 38.7767 18.6475 38.952 18.7249C39.1319 18.8023 39.4466 18.892 39.9054 18.9978C40.2471 19.0753 40.4585 19.1404 40.5439 19.1892C40.6654 19.2627 40.7282 19.3646 40.7282 19.491C40.7282 19.6334 40.6608 19.7558 40.5214 19.8617C40.382 19.9675 40.1707 20.0206 39.8828 20.0206C39.5951 20.0206 39.3747 19.9595 39.2174 19.8414C39.06 19.7191 38.9655 19.548 38.9296 19.3238L38.3135 19.4135C38.3809 19.7679 38.5429 20.0368 38.7902 20.2201C39.0375 20.3997 39.4062 20.4892 39.8828 20.4892C40.1707 20.4892 40.4315 20.4404 40.6608 20.3505C40.8901 20.261 41.0655 20.1307 41.1869 19.9637C41.3039 19.7965 41.3668 19.6172 41.3668 19.4299C41.3668 19.2342 41.3174 19.0753 41.2184 18.9449C41.1195 18.8146 40.9845 18.7167 40.8092 18.6475Z" fill="white"/>
<path d="M43.0126 16.3452C43.089 16.2718 43.2239 16.2351 43.4128 16.2351C43.5297 16.2351 43.6512 16.2474 43.7815 16.2678L43.8759 15.7747C43.6601 15.738 43.4667 15.7177 43.2913 15.7177C43.0171 15.7177 42.8057 15.7665 42.6529 15.8563C42.4999 15.9498 42.3919 16.0681 42.3336 16.2147C42.2885 16.3247 42.2661 16.4919 42.2661 16.7158V17.0704H41.713V17.5105H42.2616V20.4077H42.8956V17.5105H43.6151V17.0665H42.8956V16.7566C42.8956 16.5571 42.9362 16.4186 43.0126 16.3452Z" fill="white"/>
<path d="M47.2666 18.7331C47.2666 18.1829 47.1092 17.7551 46.7989 17.4496C46.4887 17.1439 46.0884 16.993 45.5939 16.993C45.0856 16.993 44.672 17.1479 44.3527 17.4576C44.0334 17.7672 43.876 18.2032 43.876 18.7655C43.876 19.3115 44.0334 19.7313 44.3481 20.0328C44.663 20.3344 45.0902 20.4851 45.6297 20.4851C46.0615 20.4851 46.4122 20.3913 46.6865 20.2039C46.9608 20.0166 47.1497 19.7517 47.2531 19.4095L46.6101 19.336C46.5156 19.5722 46.3853 19.7476 46.2099 19.8576C46.048 19.9675 45.8546 20.0206 45.6253 20.0206C45.3195 20.0206 45.0632 19.9229 44.8563 19.7273C44.654 19.5318 44.537 19.2504 44.5146 18.8839H47.2621C47.2666 18.8185 47.2666 18.7655 47.2666 18.7331ZM44.5596 18.4193C44.5821 18.1298 44.6899 17.8975 44.8834 17.7225C45.0811 17.5473 45.3195 17.4617 45.6073 17.4617C45.922 17.4617 46.1829 17.5717 46.3807 17.7876C46.5066 17.9262 46.5875 18.138 46.6146 18.4193H44.5596Z" fill="white"/>
<path d="M48.9887 17.1112C48.8674 17.1887 48.7369 17.3434 48.593 17.5799V17.0747H48.031V20.4118H48.6515V18.6637C48.6515 18.4232 48.6874 18.2033 48.755 18.0036C48.8044 17.8731 48.8809 17.7672 48.9887 17.6941C49.0967 17.6205 49.2227 17.5838 49.3575 17.5838C49.5104 17.5838 49.6633 17.6246 49.8162 17.706L50.032 17.1804C49.8117 17.0581 49.6003 16.9973 49.389 16.9973C49.245 16.9973 49.1102 17.0338 48.9887 17.1112Z" fill="white"/>
</svg>
