<svg width="134" height="60" viewBox="0 0 134 60" fill="none" xmlns="http://www.w3.org/2000/svg">
<path d="M51.6071 31.9185C51.6071 33.7497 51.4877 33.9089 50.5921 34.0482L49.9752 34.1478C49.816 34.2473 49.816 34.725 49.9752 34.8444C51.1096 34.8046 52.1245 34.7847 53.0797 34.7847C53.7961 34.7847 54.7912 34.9041 55.7265 34.9041C57.7763 34.9041 59.4081 34.6454 60.7613 33.9686C63.0499 32.8341 64.3236 30.6844 64.3236 28.0172C64.3236 25.5292 62.8907 23.1805 60.2837 22.245C58.9106 21.7474 57.2787 21.5881 55.6469 21.5881C53.5374 21.5881 51.9852 21.6678 50.3135 21.7673C50.0747 21.7872 50.0747 22.3644 50.2737 22.4639L50.6518 22.5037C51.5673 22.6033 51.6071 22.9814 51.6071 24.8723V31.9185ZM54.4529 23.9169C54.4529 23.2999 54.4728 22.9217 54.5922 22.7625C54.7116 22.6033 55.0897 22.5037 55.627 22.5037C59.229 22.5037 61.1196 24.6335 61.1196 28.2163C61.1196 30.9233 59.9454 33.9885 56.5026 33.9885C55.7862 33.9885 55.2091 33.8094 54.8509 33.4113C54.4927 32.9933 54.4529 32.2768 54.4529 31.182V23.9169Z" fill="white"/>
<path d="M70.2334 23.3397C70.2334 22.6033 70.2334 22.5634 70.8901 22.5634H72.4822C73.4573 22.5634 74.0543 22.8023 74.4324 23.1805C74.6911 23.4591 74.9697 24.0563 75.1886 24.7529C75.3877 24.9321 75.8454 24.8923 75.925 24.6733C75.8255 23.3397 75.6862 21.9066 75.6663 21.5881C75.4076 21.6279 74.2732 21.6478 72.9996 21.6478H68.7807C67.8254 21.6478 66.8503 21.6279 65.915 21.5881C65.716 21.7076 65.6961 22.1654 65.8752 22.2848L66.3727 22.3843C67.2682 22.5634 67.3876 22.6829 67.3876 24.4942V31.9185C67.3876 33.7497 67.2682 33.8691 66.3727 34.0084L65.4374 34.1478C65.2782 34.2473 65.2782 34.725 65.4374 34.8444C66.9299 34.8046 67.905 34.7847 68.8603 34.7847H71.4473C73.0792 34.7847 74.9896 34.8046 76.0444 34.8444C76.323 34.307 76.8006 32.6947 76.8802 31.6597C76.8006 31.4209 76.3031 31.3412 76.1439 31.5602C75.0493 33.8094 74.3727 33.8691 72.6414 33.8691C71.1886 33.8691 70.8105 33.7099 70.5518 33.3516C70.313 33.0132 70.2334 32.3763 70.2334 31.4607V29.0921C70.2334 28.4949 70.2533 28.475 70.7906 28.475H72.1638C73.1986 28.475 73.4374 28.6343 73.6364 29.5897L73.7359 30.0873C73.8752 30.2664 74.3727 30.2465 74.4722 30.0674C74.4324 29.4304 74.4125 28.7139 74.4125 27.9575C74.4125 27.2012 74.4324 26.4846 74.4722 25.8477C74.3727 25.6685 73.8752 25.6685 73.7359 25.8278L73.6364 26.3254C73.4374 27.2808 73.1986 27.4201 72.1638 27.4201H70.7906C70.2533 27.4201 70.2334 27.3803 70.2334 26.823V23.3397Z" fill="white"/>
<path d="M79.1842 31.9185C79.1842 33.7099 79.0648 33.8492 78.1692 34.0283L77.5921 34.1478C77.4329 34.2075 77.4329 34.725 77.5921 34.8444C78.7265 34.8046 79.7016 34.7847 80.6767 34.7847C81.2538 34.7847 82.01 34.8643 82.7265 34.8643C83.9404 34.8643 85.4329 34.8046 86.6867 34.3667C87.9404 33.9288 89.035 32.854 89.0151 31.0228C88.9952 29.0921 87.6618 28.057 86.0897 27.7187C85.9106 27.6789 85.8111 27.6191 85.8111 27.5594C85.8111 27.4599 86.0101 27.3803 86.2091 27.3405C86.826 27.1812 88.2389 26.5244 88.2389 24.8524C88.2389 23.6781 87.7215 22.8421 86.8658 22.3246C85.9902 21.8071 84.7165 21.5881 82.8061 21.5881C80.816 21.5881 79.3633 21.6678 77.8508 21.7673C77.5523 21.7872 77.5921 22.3843 77.7712 22.4838L78.3085 22.5634C79.1444 22.6829 79.1842 22.8819 79.1842 24.8923V31.9185ZM81.9304 23.5388C81.9304 22.663 81.9503 22.5037 82.8857 22.5037C84.2588 22.5037 85.3334 23.3596 85.3334 25.0913C85.3334 26.2856 84.6966 27.3803 82.9852 27.3803C81.9503 27.3803 81.9304 27.3405 81.9304 26.823V23.5388ZM81.9304 29.0722C81.9304 28.276 81.9304 28.2561 83.025 28.2561C84.9354 28.2561 85.9305 29.4702 85.9305 31.2019C85.9305 32.8142 85.1543 33.9487 83.6817 33.9487C82.1294 33.9487 81.9304 32.9734 81.9304 31.4209V29.0722Z" fill="white"/>
<path d="M94.6622 24.5539C94.6622 22.6829 94.7816 22.5435 95.697 22.3843L96.2542 22.2848C96.4134 22.1654 96.4134 21.7076 96.2542 21.5881C95.1796 21.6279 94.1845 21.6478 93.2492 21.6478C92.294 21.6478 91.299 21.6279 90.2243 21.5881C90.0651 21.7076 90.0651 22.1654 90.2243 22.2848L90.7815 22.3843C91.697 22.5435 91.8164 22.6829 91.8164 24.5539V31.8787C91.8164 33.7497 91.697 33.889 90.7815 34.0482L90.2243 34.1478C90.0651 34.2672 90.0651 34.725 90.2243 34.8444C91.299 34.8046 92.294 34.7847 93.2492 34.7847C94.1845 34.7847 95.1597 34.8046 96.2343 34.8444C96.3935 34.725 96.4134 34.2672 96.2542 34.1478L95.697 34.0482C94.7816 33.889 94.6622 33.7497 94.6622 31.8787V24.5539Z" fill="white"/>
<path d="M109.908 26.6438C109.908 25.0316 109.987 23.5388 110.206 23.0013C110.385 22.5834 110.764 22.4241 111.281 22.3445L111.639 22.2848C111.798 22.1256 111.759 21.7076 111.639 21.5881C110.863 21.6279 110.147 21.6478 109.41 21.6478C108.594 21.6478 107.818 21.6279 106.744 21.5881C106.624 21.7076 106.584 22.1256 106.744 22.2848L107.281 22.3644C107.818 22.444 108.256 22.5834 108.435 23.0013C108.654 23.5388 108.734 25.0316 108.734 26.6438V29.3906C108.734 29.7489 108.734 30.0873 108.654 30.2863C108.196 29.8285 107.619 29.1319 106.744 28.0968L105.072 26.1263C103.281 23.9966 101.987 22.4838 101.788 21.5881C101.371 21.6279 100.793 21.6478 100.117 21.6478C99.3009 21.6478 98.3058 21.6279 97.3705 21.5881C97.1715 21.6479 97.1516 22.1256 97.2909 22.2848L97.8481 22.3644C98.5446 22.4639 98.8233 22.7028 98.9825 23.0412C99.1019 23.3198 99.1218 23.6383 99.1218 24.733V29.7887C99.1218 31.401 99.0621 32.8938 98.8432 33.4312C98.6839 33.8492 98.2859 33.9885 97.7486 34.088L97.4103 34.1478C97.2511 34.307 97.2909 34.725 97.4103 34.8444C98.1665 34.8046 98.9029 34.7847 99.6392 34.7847C100.435 34.7847 101.231 34.8046 102.306 34.8444C102.425 34.725 102.465 34.307 102.306 34.1478L101.749 34.0681C101.231 33.9885 100.774 33.8492 100.594 33.4312C100.375 32.8938 100.296 31.401 100.296 29.7887V25.9273C100.296 25.1908 100.296 24.8524 100.395 24.6534C100.754 24.952 101.41 25.7879 102.565 27.2012L107.162 32.8938C108.097 34.0482 108.754 35.0634 108.774 35.0634C109.251 35.0634 109.808 34.8444 109.948 34.6056C109.908 33.9487 109.908 32.6947 109.908 31.401V26.6438Z" fill="white"/>
<path d="M52.5675 43.2087C52.8694 43.2087 53.1176 43.1773 53.3119 43.1145C53.6588 42.9979 53.9428 42.7736 54.1641 42.4417C54.3405 42.1755 54.4675 41.8346 54.5453 41.419C54.5901 41.1708 54.6125 40.9405 54.6125 40.7282C54.6125 39.9118 54.4496 39.2778 54.1237 38.8263C53.8008 38.3747 53.2791 38.1489 52.5585 38.1489H50.9754V43.2087H52.5675ZM50.0784 37.3819H52.7469C53.6528 37.3819 54.3554 37.7034 54.8547 38.3463C55.3002 38.9264 55.523 39.6696 55.523 40.5757C55.523 41.2754 55.3914 41.9079 55.1283 42.4731C54.6649 43.4719 53.8681 43.9713 52.7379 43.9713H50.0784V37.3819Z" fill="white"/>
<path d="M58.5681 39.0595C58.909 39.0595 59.2394 39.1403 59.5593 39.3017C59.8792 39.4602 60.1229 39.6666 60.2903 39.9208C60.4518 40.163 60.5594 40.4456 60.6132 40.7685C60.6611 40.9898 60.685 41.3427 60.685 41.8272H57.1644C57.1793 42.3146 57.2945 42.7063 57.5097 43.0024C57.725 43.2955 58.0584 43.442 58.5098 43.442C58.9314 43.442 59.2678 43.3029 59.5189 43.0248C59.6624 42.8633 59.7641 42.6764 59.8239 42.4641H60.6177C60.5968 42.6406 60.5265 42.8379 60.4069 43.0562C60.2903 43.2715 60.1588 43.448 60.0122 43.5855C59.7671 43.8248 59.4636 43.9862 59.1018 44.07C58.9075 44.1178 58.6877 44.1418 58.4426 44.1418C57.8446 44.1418 57.3378 43.9249 56.9222 43.4913C56.5066 43.0547 56.2988 42.4447 56.2988 41.6612C56.2988 40.8897 56.5081 40.2632 56.9267 39.7817C57.3453 39.3002 57.8924 39.0595 58.5681 39.0595ZM59.8553 41.1857C59.8224 40.8358 59.7461 40.5562 59.6266 40.3469C59.4053 39.9581 59.0361 39.7638 58.5188 39.7638C58.1481 39.7638 57.8371 39.8983 57.586 40.1675C57.3348 40.4336 57.2018 40.773 57.1868 41.1857H59.8553ZM59.501 37.2339L58.3035 38.5302H57.6846L58.5054 37.2339H59.501Z" fill="white"/>
<path d="M61.6178 37.3595H62.4027V39.7503C62.5791 39.52 62.7898 39.3451 63.035 39.2255C63.2802 39.1029 63.5463 39.0416 63.8333 39.0416C64.4313 39.0416 64.9156 39.2479 65.2864 39.6606C65.6601 40.0703 65.847 40.6758 65.847 41.4773C65.847 42.2368 65.6631 42.8678 65.2954 43.3702C64.9276 43.8726 64.4178 44.1238 63.766 44.1238C63.4013 44.1238 63.0933 44.0356 62.8422 43.8592C62.6927 43.7545 62.5327 43.587 62.3623 43.3568V43.9713H61.6178V37.3595ZM63.7167 43.4106C64.1532 43.4106 64.4791 43.2371 64.6944 42.8903C64.9126 42.5434 65.0218 42.0858 65.0218 41.5176C65.0218 41.0123 64.9126 40.5936 64.6944 40.2617C64.4791 39.9297 64.1607 39.7638 63.7391 39.7638C63.3714 39.7638 63.0485 39.8998 62.7704 40.172C62.4953 40.4441 62.3578 40.8926 62.3578 41.5176C62.3578 41.9692 62.4146 42.3355 62.5282 42.6166C62.7405 43.1459 63.1367 43.4106 63.7167 43.4106Z" fill="white"/>
<path d="M66.7933 39.1896H67.614V43.9713H66.7933V39.1896ZM66.7933 37.3819H67.614V38.297H66.7933V37.3819Z" fill="white"/>
<path d="M68.9998 37.826H69.816V39.1672H70.5829V39.8266H69.816V42.962C69.816 43.1295 69.8728 43.2416 69.9865 43.2985C70.0493 43.3313 70.1539 43.3478 70.3004 43.3478C70.3393 43.3478 70.3811 43.3478 70.426 43.3478C70.4708 43.3448 70.5231 43.3403 70.5829 43.3343V43.9713C70.4903 43.9982 70.3931 44.0176 70.2914 44.0296C70.1928 44.0416 70.0851 44.0476 69.9685 44.0476C69.5918 44.0476 69.3362 43.9519 69.2016 43.7605C69.0671 43.5661 68.9998 43.3149 68.9998 43.0069V39.8266H68.3495V39.1672H68.9998V37.826Z" fill="white"/>
<path d="M73.3007 43.451C73.8359 43.451 74.2022 43.2491 74.3995 42.8454C74.5998 42.4387 74.7 41.9871 74.7 41.4907C74.7 41.0422 74.6282 40.6773 74.4847 40.3962C74.2575 39.9537 73.8658 39.7324 73.3097 39.7324C72.8164 39.7324 72.4576 39.9208 72.2334 40.2976C72.0091 40.6743 71.897 41.1289 71.897 41.6612C71.897 42.1726 72.0091 42.5987 72.2334 42.9396C72.4576 43.2805 72.8134 43.451 73.3007 43.451ZM73.3321 39.0281C73.951 39.0281 74.4743 39.2345 74.9018 39.6471C75.3294 40.0598 75.5431 40.6669 75.5431 41.4683C75.5431 42.2428 75.3548 42.8828 74.9781 43.3882C74.6013 43.8935 74.0168 44.1462 73.2245 44.1462C72.5637 44.1462 72.039 43.9235 71.6503 43.4779C71.2616 43.0293 71.0673 42.4282 71.0673 41.6746C71.0673 40.8672 71.2721 40.2243 71.6817 39.7458C72.0913 39.2673 72.6415 39.0281 73.3321 39.0281Z" fill="white"/>
<path d="M79.3732 37.3819H80.2746V43.9713H79.3732V37.3819Z" fill="white"/>
<path d="M81.6201 39.1672H82.387V39.849C82.6142 39.5679 82.8549 39.366 83.109 39.2434C83.3632 39.1208 83.6457 39.0595 83.9566 39.0595C84.6383 39.0595 85.0988 39.2973 85.338 39.7727C85.4695 40.0329 85.5353 40.4052 85.5353 40.8897V43.9713H84.7146V40.9435C84.7146 40.6504 84.6712 40.4142 84.5845 40.2348C84.441 39.9357 84.1809 39.7862 83.8042 39.7862C83.6128 39.7862 83.4558 39.8056 83.3333 39.8445C83.112 39.9103 82.9177 40.0419 82.7502 40.2392C82.6157 40.3977 82.5275 40.5622 82.4856 40.7327C82.4468 40.9001 82.4273 41.1409 82.4273 41.4548V43.9713H81.6201V39.1672Z" fill="white"/>
<path d="M86.7327 39.1672H87.531V39.849C87.7224 39.6127 87.8958 39.4408 88.0513 39.3331C88.3174 39.1507 88.6194 39.0595 88.9572 39.0595C89.3399 39.0595 89.6479 39.1537 89.8811 39.3421C90.0126 39.4498 90.1322 39.6083 90.2399 39.8176C90.4193 39.5604 90.63 39.3705 90.8722 39.2479C91.1144 39.1223 91.3865 39.0595 91.6885 39.0595C92.3343 39.0595 92.7738 39.2928 93.007 39.7593C93.1326 40.0105 93.1954 40.3484 93.1954 40.773V43.9713H92.3567V40.634C92.3567 40.314 92.276 40.0942 92.1145 39.9746C91.956 39.855 91.7617 39.7952 91.5315 39.7952C91.2146 39.7952 90.941 39.9013 90.7108 40.1136C90.4835 40.326 90.3699 40.6803 90.3699 41.1767V43.9713H89.5492V40.8358C89.5492 40.5099 89.5103 40.2721 89.4326 40.1226C89.31 39.8983 89.0813 39.7862 88.7464 39.7862C88.4415 39.7862 88.1634 39.9043 87.9122 40.1406C87.6641 40.3768 87.54 40.8044 87.54 41.4235V43.9713H86.7327V39.1672Z" fill="white"/>
<path d="M96.3841 39.0595C96.7249 39.0595 97.0553 39.1403 97.3752 39.3017C97.6951 39.4602 97.9388 39.6666 98.1062 39.9208C98.2677 40.163 98.3753 40.4456 98.4291 40.7685C98.477 40.9898 98.5009 41.3427 98.5009 41.8272H94.9803C94.9953 42.3146 95.1104 42.7063 95.3256 43.0024C95.5409 43.2955 95.8743 43.442 96.3257 43.442C96.7473 43.442 97.0837 43.3029 97.3348 43.0248C97.4783 42.8633 97.58 42.6764 97.6398 42.4641H98.4336C98.4127 42.6406 98.3424 42.8379 98.2228 43.0562C98.1062 43.2715 97.9747 43.448 97.8282 43.5855C97.583 43.8248 97.2795 43.9862 96.9177 44.07C96.7234 44.1178 96.5036 44.1418 96.2585 44.1418C95.6605 44.1418 95.1537 43.9249 94.7381 43.4913C94.3225 43.0547 94.1147 42.4447 94.1147 41.6612C94.1147 40.8897 94.324 40.2632 94.7426 39.7817C95.1612 39.3002 95.7083 39.0595 96.3841 39.0595ZM97.6712 41.1857C97.6383 40.8358 97.5621 40.5562 97.4425 40.3469C97.2212 39.9581 96.852 39.7638 96.3347 39.7638C95.964 39.7638 95.653 39.8983 95.4019 40.1675C95.1507 40.4336 95.0177 40.773 95.0027 41.1857H97.6712Z" fill="white"/>
<path d="M100.008 41.6253C100.008 42.1397 100.117 42.5703 100.335 42.9172C100.553 43.2641 100.903 43.4375 101.385 43.4375C101.758 43.4375 102.065 43.2775 102.304 42.9575C102.546 42.6346 102.667 42.1726 102.667 41.5715C102.667 40.9644 102.543 40.5159 102.295 40.2258C102.047 39.9327 101.74 39.7862 101.376 39.7862C100.969 39.7862 100.639 39.9417 100.385 40.2527C100.133 40.5637 100.008 41.0212 100.008 41.6253ZM101.223 39.0819C101.591 39.0819 101.899 39.1597 102.147 39.3152C102.291 39.4049 102.453 39.5619 102.636 39.7862V37.3595H103.412V43.9713H102.685V43.3029C102.497 43.599 102.274 43.8128 102.017 43.9444C101.76 44.076 101.465 44.1418 101.133 44.1418C100.598 44.1418 100.135 43.9175 99.7432 43.4689C99.3515 43.0174 99.1557 42.4178 99.1557 41.6702C99.1557 40.9704 99.3336 40.3648 99.6894 39.8535C100.048 39.3391 100.559 39.0819 101.223 39.0819Z" fill="white"/>
<path d="M104.609 39.1896H105.43V43.9713H104.609V39.1896ZM104.609 37.3819H105.43V38.297H104.609V37.3819Z" fill="white"/>
<path d="M107.273 42.6929C107.273 42.9261 107.358 43.1101 107.529 43.2446C107.699 43.3792 107.901 43.4465 108.134 43.4465C108.418 43.4465 108.693 43.3807 108.959 43.2491C109.408 43.0308 109.632 42.6735 109.632 42.177V41.5266C109.534 41.5894 109.406 41.6418 109.251 41.6836C109.095 41.7255 108.943 41.7554 108.794 41.7733L108.305 41.8361C108.012 41.875 107.792 41.9363 107.645 42.02C107.397 42.1606 107.273 42.3849 107.273 42.6929ZM109.229 41.0601C109.414 41.0362 109.538 40.9584 109.601 40.8269C109.637 40.7551 109.655 40.6519 109.655 40.5173C109.655 40.2422 109.556 40.0434 109.359 39.9208C109.164 39.7952 108.885 39.7324 108.52 39.7324C108.098 39.7324 107.799 39.846 107.623 40.0733C107.524 40.1989 107.46 40.3858 107.43 40.634H106.677C106.692 40.0419 106.883 39.6307 107.251 39.4004C107.621 39.1672 108.051 39.0505 108.538 39.0505C109.103 39.0505 109.562 39.1582 109.915 39.3735C110.265 39.5888 110.439 39.9237 110.439 40.3783V43.1459C110.439 43.2297 110.456 43.297 110.489 43.3478C110.525 43.3986 110.598 43.424 110.709 43.424C110.744 43.424 110.785 43.4226 110.83 43.4196C110.874 43.4136 110.922 43.4061 110.973 43.3971V43.9937C110.848 44.0296 110.752 44.052 110.686 44.061C110.62 44.07 110.531 44.0745 110.417 44.0745C110.139 44.0745 109.937 43.9758 109.812 43.7784C109.746 43.6737 109.699 43.5257 109.673 43.3343C109.508 43.5496 109.272 43.7365 108.964 43.895C108.656 44.0535 108.317 44.1328 107.946 44.1328C107.5 44.1328 107.136 43.9982 106.852 43.7291C106.571 43.4569 106.43 43.1175 106.43 42.7108C106.43 42.2653 106.569 41.9199 106.847 41.6746C107.125 41.4294 107.49 41.2784 107.941 41.2216L109.229 41.0601Z" fill="white"/>
<path d="M111.928 37.826H112.745V39.1672H113.512V39.8266H112.745V42.962C112.745 43.1295 112.801 43.2416 112.915 43.2985C112.978 43.3313 113.082 43.3478 113.229 43.3478C113.268 43.3478 113.31 43.3478 113.355 43.3478C113.399 43.3448 113.452 43.3403 113.512 43.3343V43.9713C113.419 43.9982 113.322 44.0176 113.22 44.0296C113.121 44.0416 113.014 44.0476 112.897 44.0476C112.52 44.0476 112.265 43.9519 112.13 43.7605C111.996 43.5661 111.928 43.3149 111.928 43.0069V39.8266H111.278V39.1672H111.928V37.826Z" fill="white"/>
<path d="M116.229 43.451C116.765 43.451 117.131 43.2491 117.328 42.8454C117.528 42.4387 117.629 41.9871 117.629 41.4907C117.629 41.0422 117.557 40.6773 117.413 40.3962C117.186 39.9537 116.794 39.7324 116.238 39.7324C115.745 39.7324 115.386 39.9208 115.162 40.2976C114.938 40.6743 114.826 41.1289 114.826 41.6612C114.826 42.1726 114.938 42.5987 115.162 42.9396C115.386 43.2805 115.742 43.451 116.229 43.451ZM116.261 39.0281C116.88 39.0281 117.403 39.2345 117.83 39.6471C118.258 40.0598 118.472 40.6669 118.472 41.4683C118.472 42.2428 118.283 42.8828 117.907 43.3882C117.53 43.8935 116.945 44.1462 116.153 44.1462C115.492 44.1462 114.968 43.9235 114.579 43.4779C114.19 43.0293 113.996 42.4282 113.996 41.6746C113.996 40.8672 114.201 40.2243 114.61 39.7458C115.02 39.2673 115.57 39.0281 116.261 39.0281Z" fill="white"/>
<path d="M44.4574 21.3127H44.4562L30.7773 15.2632L17.0985 21.3127H17.0971V24.8298H44.4574V21.3127Z" fill="white"/>
<path d="M19.7912 37.7026C19.3854 37.7026 19.0564 38.0332 19.0564 38.4412C19.0564 38.8491 19.3854 39.1798 19.7912 39.1798H24.1296C24.5354 39.1798 24.8644 38.8491 24.8644 38.4412C24.8644 38.0332 24.5354 37.7026 24.1296 37.7026H23.8847V27.1511H24.1296C24.5354 27.1511 24.8644 26.8204 24.8644 26.4125C24.8644 26.0046 24.5354 25.6739 24.1296 25.6739H19.7912C19.3854 25.6739 19.0564 26.0046 19.0564 26.4125C19.0564 26.8204 19.3854 27.1511 19.7912 27.1511H20.0361V37.7026H19.7912Z" fill="white"/>
<path d="M28.608 37.7026C28.2023 37.7026 27.8733 38.0332 27.8733 38.4412C27.8733 38.8491 28.2023 39.1798 28.608 39.1798H32.9465C33.3523 39.1798 33.6812 38.8491 33.6812 38.4412C33.6812 38.0332 33.3523 37.7026 32.9465 37.7026H32.7016V27.1511H32.9465C33.3523 27.1511 33.6812 26.8204 33.6812 26.4125C33.6812 26.0046 33.3523 25.6739 32.9465 25.6739H28.608C28.2023 25.6739 27.8733 26.0046 27.8733 26.4125C27.8733 26.8204 28.2023 27.1511 28.608 27.1511H28.853V37.7026H28.608Z" fill="white"/>
<path d="M37.5649 37.7026C37.1591 37.7026 36.8301 38.0332 36.8301 38.4412C36.8301 38.8491 37.1591 39.1798 37.5649 39.1798H41.9033C42.3091 39.1798 42.6381 38.8491 42.6381 38.4412C42.6381 38.0332 42.3091 37.7026 41.9033 37.7026H41.6584V27.1511H41.9033C42.3091 27.1511 42.6381 26.8204 42.6381 26.4125C42.6381 26.0046 42.3091 25.6739 41.9033 25.6739H37.5649C37.1591 25.6739 36.8301 26.0046 36.8301 26.4125C36.8301 26.8204 37.1591 27.1511 37.5649 27.1511H37.8098V37.7026H37.5649Z" fill="white"/>
<path d="M17.0978 40.7273V41.1494C17.0978 41.5378 17.4111 41.8528 17.7976 41.8528H43.757C44.1434 41.8528 44.4567 41.5378 44.4567 41.1494V40.7273C44.4567 40.3389 44.1434 40.0239 43.757 40.0239H17.7976C17.4111 40.0239 17.0978 40.3388 17.0978 40.7273Z" fill="white"/>
<path d="M45.577 42.6969H15.9775C15.591 42.6969 15.2778 43.0119 15.2778 43.4003V44.0334C15.2778 44.4219 15.591 44.7368 15.9775 44.7368H45.577C45.9634 44.7368 46.2768 44.4219 46.2768 44.0334V43.4003C46.2768 43.0118 45.9635 42.6969 45.577 42.6969Z" fill="white"/>
</svg>
