<svg width="134" height="60" fill="none" xmlns="http://www.w3.org/2000/svg"><path fill-rule="evenodd" clip-rule="evenodd" d="M67 13.659c-.27.21-.536.427-.795.65-4.428 3.806-7.23 9.41-7.23 15.664s2.802 11.858 7.23 15.664c.26.223.524.44.795.65.27-.21.536-.427.796-.65 4.427-3.806 7.23-9.41 7.23-15.664s-2.802-11.858-7.23-15.664c-.26-.223-.525-.44-.796-.65zm12.987-4.447a21.096 21.096 0 0 0-11.633 3.47c.17.138.343.274.508.416 4.95 4.254 7.79 10.405 7.79 16.875 0 6.47-2.84 12.62-7.79 16.876-.163.141-.337.277-.508.415a21.09 21.09 0 0 0 11.633 3.47c11.605 0 21.013-9.294 21.013-20.76 0-11.467-9.408-20.762-21.013-20.762zM65.138 46.85c.164.141.337.277.508.415a21.09 21.09 0 0 1-11.633 3.47C42.408 50.734 33 41.44 33 29.974c0-11.466 9.407-20.762 21.013-20.762 4.303 0 8.302 1.278 11.633 3.47-.17.138-.343.273-.508.415-4.95 4.255-7.79 10.406-7.79 16.876 0 6.47 2.84 12.621 7.79 16.876z" fill="#fff"/></svg>