<svg width="134" height="60" viewBox="0 0 134 60" fill="none" xmlns="http://www.w3.org/2000/svg">
<path fill-rule="evenodd" clip-rule="evenodd" d="M32.3048 38.4048V40.5568H21.0833V38.4048H32.3048ZM32.3048 34.174V36.3259H21.0833V34.174H32.3048ZM32.3048 29.6376V31.7895H21.0833V29.6376H32.3048Z" fill="white"/>
<path d="M25.5562 27.718V21.9019H27.5583V20.1366H21.3204V21.9019H23.3224V27.718H25.5562ZM30.6841 27.718V25.2276H31.4165L32.6177 27.718H35.1149L33.6714 24.8966C34.409 24.5394 34.8937 23.6882 34.8937 22.7425V22.732C34.8937 21.0508 33.8294 20.1366 31.8748 20.1366H28.4503V27.718H30.6841ZM31.6167 23.6567H30.6841V21.7811H31.6167C32.2067 21.7811 32.6177 22.1646 32.6177 22.7163V22.7268C32.6177 23.2837 32.2173 23.6567 31.6167 23.6567ZM37.9089 27.718L38.3041 26.2101H40.58L40.9752 27.718H43.3249L40.8435 20.1366H38.0406L35.5592 27.718H37.9089ZM40.1691 24.6392H38.715L39.421 21.9439H39.4631L40.1691 24.6392ZM46.3718 27.718V23.7775H46.4087L49.1167 27.718H50.9554V20.1366H48.7215V24.014H48.6847L45.9977 20.1366H44.138V27.718H46.3718ZM55.2034 27.8546C57.3003 27.8546 58.5226 26.8616 58.5226 25.2959V25.2907C58.5226 24.0613 57.7481 23.3993 56.1202 23.105L55.3562 22.9684C54.5976 22.8318 54.2709 22.669 54.2709 22.3275V22.3222C54.2709 21.9755 54.587 21.7075 55.2034 21.7075C55.8146 21.7075 56.2571 21.9702 56.2993 22.3853L56.3046 22.4378H58.3593L58.354 22.3222C58.2908 20.9037 57.2107 20 55.1771 20C53.3753 20 52.0582 20.9615 52.0582 22.4851V22.4903C52.0582 23.6672 52.8853 24.429 54.3974 24.697L55.1613 24.8336C56.0043 24.9859 56.3098 25.133 56.3098 25.4903V25.4956C56.3098 25.8738 55.8989 26.147 55.2298 26.147C54.5976 26.147 54.0813 25.8738 53.9917 25.464L53.9812 25.4168H51.9265L51.9317 25.5166C52.0107 27.0139 53.233 27.8546 55.2034 27.8546ZM61.717 27.718V25.0332H64.5303V23.3625H61.717V21.9019H64.8254V20.1366H59.4831V27.718H61.717ZM71.1071 27.718V25.9527H67.9776V24.7495H70.9122V23.1103H67.9776V21.9019H71.1071V20.1366H65.7438V27.718H71.1071ZM74.5122 27.718V25.2276H75.2445L76.4457 27.718H78.943L77.4994 24.8966C78.237 24.5394 78.7217 23.6882 78.7217 22.7425V22.732C78.7217 21.0508 77.6575 20.1366 75.7029 20.1366H72.2784V27.718H74.5122ZM75.4447 23.6567H74.5122V21.7811H75.4447C76.0348 21.7811 76.4457 22.1646 76.4457 22.7163V22.7268C76.4457 23.2837 76.0453 23.6567 75.4447 23.6567ZM85.1194 27.718V25.9527H81.9899V24.7495H84.9244V23.1103H81.9899V21.9019H85.1194V20.1366H79.756V27.718H85.1194ZM88.5245 27.718V23.7775H88.5614L91.2694 27.718H93.1081V20.1366H90.8742V24.014H90.8373L88.1504 20.1366H86.2906V27.718H88.5245ZM97.8725 27.8546C99.964 27.8546 101.413 26.4938 101.413 24.718V24.6602H99.2739L99.2686 24.718C99.1948 25.5166 98.6469 26.0367 97.8777 26.0367C96.9557 26.0367 96.3815 25.2696 96.3815 23.9194V23.9141C96.3815 22.5849 96.9557 21.8178 97.8725 21.8178C98.6996 21.8178 99.1948 22.38 99.2581 23.1313L99.2633 23.1944H101.402V23.1471C101.402 21.366 99.9851 20 97.8725 20C95.5543 20 94.1055 21.4185 94.1055 23.9194V23.9247C94.1055 26.4255 95.5385 27.8546 97.8725 27.8546ZM104.618 27.718V20.1366H102.384V27.718H104.618ZM107.781 27.718L108.176 26.2101H110.452L110.847 27.718H113.197L110.715 20.1366H107.912L105.431 27.718H107.781ZM110.041 24.6392H108.587L109.293 21.9439H109.335L110.041 24.6392Z" fill="white"/>
<path d="M39.1605 40.5534C41.5048 40.5534 43.0221 39.2899 43.0221 37.3759V37.3607C43.0221 35.9233 41.7779 34.8187 40.3061 34.7809V34.7203C41.5655 34.5614 42.529 33.6233 42.529 32.375V32.3599C42.529 30.6576 41.2165 29.6362 38.9785 29.6362H33.5995V40.5534H39.1605ZM38.0605 33.9638H36.8163V31.8303H38.106C38.9102 31.8303 39.4033 32.2312 39.4033 32.8819V32.897C39.4033 33.5401 38.8874 33.9638 38.0605 33.9638ZM38.1894 38.3594H36.8163V35.893H38.2122C39.1757 35.893 39.7447 36.3394 39.7447 37.1035V37.1186C39.7447 37.9206 39.1757 38.3594 38.1894 38.3594ZM46.2581 40.5534L46.8271 38.3821H50.1045L50.6735 40.5534H54.0572L50.4839 29.6362H46.4478L42.8745 40.5534H46.2581ZM49.5128 36.12H47.4189L48.4355 32.2388H48.4962L49.5128 36.12ZM58.0131 40.5534V34.8792H58.0662L61.9657 40.5534H64.6134V29.6362H61.3967V35.2197H61.3436L57.4744 29.6362H54.7963V40.5534H58.0131ZM71.0426 40.7501C74.0544 40.7501 76.1408 38.7906 76.1408 36.2334V36.1502H73.0606L73.053 36.2334C72.9468 37.3834 72.1578 38.1324 71.0501 38.1324C69.7225 38.1324 68.8955 37.0278 68.8955 35.0835V35.0759C68.8955 33.1618 69.7225 32.0572 71.0426 32.0572C72.2337 32.0572 72.9468 32.8668 73.0378 33.9486L73.0454 34.0394H76.1256V33.9713C76.1256 31.4066 74.0848 29.4395 71.0426 29.4395C67.7044 29.4395 65.6181 31.4823 65.6181 35.0835V35.091C65.6181 38.6923 67.6817 40.7501 71.0426 40.7501ZM79.2014 40.5534L79.7704 38.3821H83.0478L83.6168 40.5534H87.0005L83.4272 29.6362H79.3911L75.8178 40.5534H79.2014ZM82.4561 36.12H80.3622L81.3788 32.2388H81.4395L82.4561 36.12ZM90.9564 40.5534V36.9673H92.0109L93.7407 40.5534H97.3367L95.258 36.4907C96.3201 35.9762 97.0181 34.7506 97.0181 33.3888V33.3736C97.0181 30.9527 95.4856 29.6362 92.6709 29.6362H87.7396V40.5534H90.9564ZM92.2992 34.7052H90.9564V32.0043H92.2992C93.1489 32.0043 93.7407 32.5566 93.7407 33.351V33.3661C93.7407 34.168 93.1641 34.7052 92.2992 34.7052ZM101.293 40.5534V29.6362H98.0759V40.5534H101.293ZM105.415 40.5534L105.984 38.3821H109.262L109.831 40.5534H113.214L109.641 29.6362H105.605L102.032 40.5534H105.415ZM108.67 36.12H106.576L107.593 32.2388H107.653L108.67 36.12Z" fill="white"/>
</svg>
