<svg width="134" height="60" fill="none" xmlns="http://www.w3.org/2000/svg">
  <path fill-rule="evenodd" clip-rule="evenodd" d="M67.976 26.394c-.033 2.786 2.491 4.338 4.393 5.265 1.954.947 2.61 1.556 2.603 2.403-.015 1.299-1.56 1.87-3.004 1.893-2.523.04-3.987-.68-5.154-1.222l-.908 4.24c1.171.536 3.336 1.004 5.58 1.027 5.272 0 8.719-2.596 8.736-6.619.022-5.104-7.08-5.386-7.03-7.667.016-.694.678-1.431 2.128-1.62.718-.093 2.701-.166 4.947.865l.882-4.102C79.94 20.42 78.388 20 76.454 20c-4.96 0-8.45 2.63-8.478 6.394zm21.65-6.04c-.963 0-1.775.558-2.136 1.418l-7.53 17.925h5.269l1.047-2.89h6.437l.606 2.89h4.641l-4.051-19.343h-4.283zm.736 5.226l1.52 7.263H87.72l2.642-7.263zm-28.77-5.226L57.44 39.697h5.018l4.15-19.343h-5.017zm-7.424 0l-5.223 13.165-2.113-11.194c-.247-1.25-1.227-1.971-2.314-1.971h-8.539l-.118.56c1.753.38 3.744.994 4.95 1.647.74.4.95.749 1.193 1.699l4 15.437h5.304l8.13-19.343h-5.27z" fill="#fff" fill-opacity=".87"/>
</svg>
